<svg width="32" height="32" viewBox="0 0 32 32" fill="none" xmlns="http://www.w3.org/2000/svg">
<path fill-rule="evenodd" clip-rule="evenodd" d="M30.5634 9.34286L29.5136 7.65714C28.6255 6.23077 26.6573 5.73871 25.1137 6.55714C24.379 6.95766 23.5022 7.0713 22.6768 6.87298C21.8514 6.67467 21.1452 6.1807 20.7138 5.5C20.4363 5.06734 20.2872 4.57453 20.2815 4.07143C20.3066 3.26482 19.9777 2.48319 19.3699 1.90458C18.762 1.32597 17.927 0.999668 17.0549 1H14.9399C14.0856 1 13.2665 1.31501 12.6638 1.87536C12.0611 2.4357 11.7246 3.19517 11.7287 3.98572C11.7034 5.61792 10.2662 6.92874 8.50214 6.92857C7.95845 6.92335 7.42589 6.78536 6.95831 6.52857C5.41476 5.71014 3.44654 6.2022 2.5584 7.62857L1.43141 9.34286C0.544349 10.7674 1.06887 12.5876 2.60472 13.4143C3.60304 13.9476 4.21804 14.9333 4.21804 16C4.21804 17.0667 3.60304 18.0524 2.60472 18.5857C1.07082 19.4069 0.545727 21.2226 1.43141 22.6429L2.49665 24.3429C2.91278 25.0377 3.61097 25.5504 4.43673 25.7675C5.26249 25.9847 6.14773 25.8884 6.89656 25.5C7.63271 25.1025 8.50994 24.9936 9.33327 25.1975C10.1566 25.4014 10.8578 25.9011 11.281 26.5857C11.5585 27.0184 11.7077 27.5112 11.7133 28.0143C11.7133 29.6633 13.1579 31 14.9399 31H17.0549C18.8309 31 20.2731 29.672 20.2815 28.0286C20.2774 27.2355 20.616 26.4739 21.222 25.9131C21.828 25.3524 22.6511 25.039 23.5081 25.0429C24.0505 25.0563 24.5809 25.1937 25.052 25.4429C26.5915 26.2637 28.5585 25.7783 29.4519 24.3571L30.5634 22.6429C30.9937 21.9595 31.1118 21.1456 30.8916 20.3814C30.6713 19.6172 30.131 18.9658 29.3901 18.5714C28.6493 18.177 28.1089 17.5256 27.8887 16.7614C27.6685 15.9973 27.7866 15.1834 28.2168 14.5C28.4966 14.048 28.9016 13.6732 29.3901 13.4143C30.9168 12.588 31.4401 10.7785 30.5634 9.35714V9.34286Z" stroke="#FBFBFB" stroke-width="1.5" stroke-linecap="round" stroke-linejoin="round"/>
<path d="M16.0051 20.1143C18.4607 20.1143 20.4513 18.2723 20.4513 16C20.4513 13.7278 18.4607 11.8857 16.0051 11.8857C13.5495 11.8857 11.5589 13.7278 11.5589 16C11.5589 18.2723 13.5495 20.1143 16.0051 20.1143Z" stroke="#FBFBFB" stroke-width="1.5" stroke-linecap="round" stroke-linejoin="round"/>
</svg>
